<mxfile host="app.diagrams.net" modified="2023-12-09T02:51:03.783Z" agent="Mozilla/5.0 (Windows NT 10.0; Win64; x64) AppleWebKit/537.36 (KHTML, like Gecko) Chrome/119.0.0.0 Safari/537.36 Edg/119.0.0.0" etag="PJMhTSO486PUOEy0Oadx" version="22.1.7" type="onedrive">
  <diagram name="第 1 页" id="954LgLtehpvPmB_bIUFs">
    <mxGraphModel grid="0" page="0" gridSize="10" guides="1" tooltips="1" connect="1" arrows="1" fold="1" pageScale="1" pageWidth="20000" pageHeight="40000" math="0" shadow="0">
      <root>
        <mxCell id="0" />
        <mxCell id="1" parent="0" />
        <mxCell id="9340GIJxY8ZhdOZicP9r-9" value="" style="edgeStyle=orthogonalEdgeStyle;orthogonalLoop=1;jettySize=auto;html=1;strokeWidth=2;curved=1;" edge="1" parent="1" source="9340GIJxY8ZhdOZicP9r-7" target="9340GIJxY8ZhdOZicP9r-8">
          <mxGeometry relative="1" as="geometry" />
        </mxCell>
        <mxCell id="9340GIJxY8ZhdOZicP9r-7" value="&lt;font style=&quot;font-size: 16px;&quot;&gt;thread1&lt;/font&gt;" style="html=1;whiteSpace=wrap;strokeWidth=2;" vertex="1" parent="1">
          <mxGeometry x="-611" y="133" width="110" height="50" as="geometry" />
        </mxCell>
        <mxCell id="9340GIJxY8ZhdOZicP9r-13" style="edgeStyle=orthogonalEdgeStyle;shape=connector;orthogonalLoop=1;jettySize=auto;html=1;exitX=1;exitY=0.5;exitDx=0;exitDy=0;labelBackgroundColor=default;strokeColor=default;strokeWidth=2;align=center;verticalAlign=middle;fontFamily=Helvetica;fontSize=11;fontColor=default;endArrow=classic;curved=1;entryX=0;entryY=0.5;entryDx=0;entryDy=0;" edge="1" parent="1" source="9340GIJxY8ZhdOZicP9r-8" target="9340GIJxY8ZhdOZicP9r-12">
          <mxGeometry relative="1" as="geometry">
            <mxPoint x="-223" y="151" as="targetPoint" />
          </mxGeometry>
        </mxCell>
        <mxCell id="9340GIJxY8ZhdOZicP9r-8" value="&lt;font style=&quot;font-size: 15px;&quot;&gt;call scheduler&lt;/font&gt;" style="ellipse;whiteSpace=wrap;html=1;strokeWidth=2;" vertex="1" parent="1">
          <mxGeometry x="-416" y="126" width="104" height="64" as="geometry" />
        </mxCell>
        <mxCell id="9340GIJxY8ZhdOZicP9r-15" value="" style="edgeStyle=orthogonalEdgeStyle;shape=connector;curved=1;rounded=1;orthogonalLoop=1;jettySize=auto;html=1;labelBackgroundColor=default;strokeColor=default;strokeWidth=2;align=center;verticalAlign=middle;fontFamily=Helvetica;fontSize=11;fontColor=default;endArrow=classic;" edge="1" parent="1" source="9340GIJxY8ZhdOZicP9r-12" target="9340GIJxY8ZhdOZicP9r-14">
          <mxGeometry relative="1" as="geometry" />
        </mxCell>
        <mxCell id="9340GIJxY8ZhdOZicP9r-12" value="&lt;font style=&quot;font-size: 15px;&quot;&gt;find a available&lt;br&gt;thread&lt;/font&gt;" style="ellipse;whiteSpace=wrap;html=1;strokeWidth=2;" vertex="1" parent="1">
          <mxGeometry x="-227" y="126" width="104" height="64" as="geometry" />
        </mxCell>
        <mxCell id="9340GIJxY8ZhdOZicP9r-17" value="" style="edgeStyle=orthogonalEdgeStyle;shape=connector;curved=1;rounded=1;orthogonalLoop=1;jettySize=auto;html=1;labelBackgroundColor=default;strokeColor=default;strokeWidth=2;align=center;verticalAlign=middle;fontFamily=Helvetica;fontSize=11;fontColor=default;endArrow=classic;" edge="1" parent="1" source="9340GIJxY8ZhdOZicP9r-14" target="9340GIJxY8ZhdOZicP9r-16">
          <mxGeometry relative="1" as="geometry" />
        </mxCell>
        <mxCell id="9340GIJxY8ZhdOZicP9r-24" style="edgeStyle=orthogonalEdgeStyle;shape=connector;curved=1;rounded=1;orthogonalLoop=1;jettySize=auto;html=1;exitX=0;exitY=0;exitDx=0;exitDy=0;entryX=0.5;entryY=1;entryDx=0;entryDy=0;labelBackgroundColor=default;strokeColor=#82b366;strokeWidth=2;align=center;verticalAlign=middle;fontFamily=Helvetica;fontSize=11;fontColor=default;endArrow=classic;fillColor=#d5e8d4;" edge="1" parent="1" source="9340GIJxY8ZhdOZicP9r-14" target="9340GIJxY8ZhdOZicP9r-20">
          <mxGeometry relative="1" as="geometry" />
        </mxCell>
        <mxCell id="9340GIJxY8ZhdOZicP9r-25" style="edgeStyle=orthogonalEdgeStyle;shape=connector;curved=1;rounded=1;orthogonalLoop=1;jettySize=auto;html=1;exitX=1;exitY=0;exitDx=0;exitDy=0;labelBackgroundColor=default;strokeColor=#d6b656;strokeWidth=2;align=center;verticalAlign=middle;fontFamily=Helvetica;fontSize=11;fontColor=default;endArrow=classic;fillColor=#fff2cc;" edge="1" parent="1" source="9340GIJxY8ZhdOZicP9r-14" target="9340GIJxY8ZhdOZicP9r-21">
          <mxGeometry relative="1" as="geometry" />
        </mxCell>
        <mxCell id="9340GIJxY8ZhdOZicP9r-14" value="thread_switch&lt;br&gt;(save,load regs)" style="ellipse;whiteSpace=wrap;html=1;strokeWidth=2;" vertex="1" parent="1">
          <mxGeometry x="-43" y="126" width="104" height="64" as="geometry" />
        </mxCell>
        <mxCell id="9340GIJxY8ZhdOZicP9r-16" value="&lt;font style=&quot;font-size: 16px;&quot;&gt;thread2&lt;/font&gt;" style="whiteSpace=wrap;html=1;strokeWidth=2;" vertex="1" parent="1">
          <mxGeometry x="126" y="134" width="107" height="48" as="geometry" />
        </mxCell>
        <mxCell id="9340GIJxY8ZhdOZicP9r-19" value="userspace" style="shape=umlFrame;whiteSpace=wrap;html=1;pointerEvents=0;strokeColor=#6c8ebf;strokeWidth=2;align=center;verticalAlign=middle;fontFamily=Helvetica;fontSize=11;fillColor=#dae8fc;" vertex="1" parent="1">
          <mxGeometry x="-633" y="15" width="902" height="185" as="geometry" />
        </mxCell>
        <mxCell id="9340GIJxY8ZhdOZicP9r-20" value="&lt;p&gt;&lt;font style=&quot;font-size: 15px;&quot;&gt;thread1 context&lt;/font&gt;&lt;/p&gt;" style="rounded=1;whiteSpace=wrap;html=1;strokeColor=default;strokeWidth=2;align=center;verticalAlign=middle;fontFamily=Helvetica;fontSize=11;fontColor=default;fillColor=default;" vertex="1" parent="1">
          <mxGeometry x="-116" y="31" width="82" height="42" as="geometry" />
        </mxCell>
        <mxCell id="9340GIJxY8ZhdOZicP9r-21" value="thread2 context" style="rounded=1;whiteSpace=wrap;html=1;strokeColor=default;strokeWidth=2;align=center;verticalAlign=middle;fontFamily=Helvetica;fontSize=11;fontColor=default;fillColor=default;" vertex="1" parent="1">
          <mxGeometry x="54" y="31" width="82" height="42" as="geometry" />
        </mxCell>
        <mxCell id="9340GIJxY8ZhdOZicP9r-26" value="save" style="text;html=1;align=center;verticalAlign=middle;resizable=0;points=[];autosize=1;strokeColor=none;fillColor=none;fontSize=11;fontFamily=Helvetica;fontColor=default;" vertex="1" parent="1">
          <mxGeometry x="-61" y="76" width="41" height="25" as="geometry" />
        </mxCell>
        <mxCell id="9340GIJxY8ZhdOZicP9r-27" value="load" style="text;html=1;align=center;verticalAlign=middle;resizable=0;points=[];autosize=1;strokeColor=none;fillColor=none;fontSize=11;fontFamily=Helvetica;fontColor=default;" vertex="1" parent="1">
          <mxGeometry x="27" y="76" width="39" height="25" as="geometry" />
        </mxCell>
        <mxCell id="9340GIJxY8ZhdOZicP9r-55" style="edgeStyle=orthogonalEdgeStyle;shape=connector;curved=1;rounded=1;orthogonalLoop=1;jettySize=auto;html=1;exitX=0.5;exitY=1;exitDx=0;exitDy=0;entryX=0;entryY=0.5;entryDx=0;entryDy=0;labelBackgroundColor=default;strokeColor=default;strokeWidth=2;align=center;verticalAlign=middle;fontFamily=Helvetica;fontSize=11;fontColor=default;endArrow=classic;" edge="1" parent="1" source="9340GIJxY8ZhdOZicP9r-41" target="9340GIJxY8ZhdOZicP9r-54">
          <mxGeometry relative="1" as="geometry">
            <Array as="points">
              <mxPoint x="-388" y="666" />
            </Array>
          </mxGeometry>
        </mxCell>
        <mxCell id="9340GIJxY8ZhdOZicP9r-41" value="&lt;b&gt;&lt;font style=&quot;font-size: 16px;&quot;&gt;shell&lt;/font&gt;&lt;/b&gt;" style="rounded=1;whiteSpace=wrap;html=1;strokeColor=default;strokeWidth=2;align=center;verticalAlign=middle;fontFamily=Helvetica;fontSize=11;fontColor=default;fillColor=default;perimeterSpacing=8;" vertex="1" parent="1">
          <mxGeometry x="-448" y="422" width="120" height="60" as="geometry" />
        </mxCell>
        <mxCell id="9340GIJxY8ZhdOZicP9r-56" style="edgeStyle=orthogonalEdgeStyle;shape=connector;curved=1;rounded=1;orthogonalLoop=1;jettySize=auto;html=1;exitX=0.5;exitY=1;exitDx=0;exitDy=0;entryX=1;entryY=0.5;entryDx=0;entryDy=0;labelBackgroundColor=default;strokeColor=default;strokeWidth=2;align=center;verticalAlign=middle;fontFamily=Helvetica;fontSize=11;fontColor=default;endArrow=none;endFill=0;startArrow=classic;startFill=1;" edge="1" parent="1" source="9340GIJxY8ZhdOZicP9r-42" target="9340GIJxY8ZhdOZicP9r-54">
          <mxGeometry relative="1" as="geometry">
            <Array as="points">
              <mxPoint x="-3" y="666" />
            </Array>
          </mxGeometry>
        </mxCell>
        <mxCell id="9340GIJxY8ZhdOZicP9r-42" value="&lt;b&gt;&lt;font style=&quot;font-size: 16px;&quot;&gt;cat&lt;br&gt;&lt;/font&gt;&lt;/b&gt;" style="rounded=1;whiteSpace=wrap;html=1;strokeColor=default;strokeWidth=2;align=center;verticalAlign=middle;fontFamily=Helvetica;fontSize=11;fontColor=default;fillColor=default;perimeterSpacing=8;" vertex="1" parent="1">
          <mxGeometry x="-63" y="422" width="120" height="60" as="geometry" />
        </mxCell>
        <mxCell id="9340GIJxY8ZhdOZicP9r-62" style="edgeStyle=orthogonalEdgeStyle;shape=connector;curved=1;rounded=1;orthogonalLoop=1;jettySize=auto;html=1;exitX=0.5;exitY=1;exitDx=0;exitDy=0;entryX=1;entryY=0.5;entryDx=0;entryDy=0;labelBackgroundColor=default;strokeColor=default;strokeWidth=2;align=center;verticalAlign=middle;fontFamily=Helvetica;fontSize=11;fontColor=default;endArrow=classic;" edge="1" parent="1" source="9340GIJxY8ZhdOZicP9r-54" target="9340GIJxY8ZhdOZicP9r-59">
          <mxGeometry relative="1" as="geometry" />
        </mxCell>
        <mxCell id="9340GIJxY8ZhdOZicP9r-63" style="edgeStyle=orthogonalEdgeStyle;shape=connector;curved=1;rounded=1;orthogonalLoop=1;jettySize=auto;html=1;exitX=0.5;exitY=1;exitDx=0;exitDy=0;entryX=0;entryY=0.5;entryDx=0;entryDy=0;labelBackgroundColor=default;strokeColor=default;strokeWidth=2;align=center;verticalAlign=middle;fontFamily=Helvetica;fontSize=11;fontColor=default;endArrow=classic;" edge="1" parent="1" source="9340GIJxY8ZhdOZicP9r-54" target="9340GIJxY8ZhdOZicP9r-60">
          <mxGeometry relative="1" as="geometry" />
        </mxCell>
        <mxCell id="9340GIJxY8ZhdOZicP9r-54" value="&lt;b&gt;&lt;font style=&quot;font-size: 13px;&quot;&gt;scheduler call switch&lt;/font&gt;&lt;/b&gt;" style="ellipse;whiteSpace=wrap;html=1;strokeColor=default;strokeWidth=2;align=center;verticalAlign=middle;fontFamily=Helvetica;fontSize=11;fontColor=default;fillColor=default;" vertex="1" parent="1">
          <mxGeometry x="-265" y="626" width="136" height="80" as="geometry" />
        </mxCell>
        <mxCell id="9340GIJxY8ZhdOZicP9r-57" value="&lt;font style=&quot;font-size: 14px;&quot;&gt;timer interupt&lt;/font&gt;" style="text;html=1;align=center;verticalAlign=middle;resizable=0;points=[];autosize=1;strokeColor=none;fillColor=none;fontSize=11;fontFamily=Helvetica;fontColor=default;" vertex="1" parent="1">
          <mxGeometry x="-388" y="522" width="100" height="29" as="geometry" />
        </mxCell>
        <mxCell id="9340GIJxY8ZhdOZicP9r-58" value="&lt;font style=&quot;font-size: 14px;&quot;&gt;or call&amp;nbsp; yield()&lt;/font&gt;" style="text;html=1;align=center;verticalAlign=middle;resizable=0;points=[];autosize=1;strokeColor=none;fillColor=none;fontSize=11;fontFamily=Helvetica;fontColor=default;" vertex="1" parent="1">
          <mxGeometry x="-385" y="561" width="101" height="29" as="geometry" />
        </mxCell>
        <mxCell id="9340GIJxY8ZhdOZicP9r-59" value="shell context" style="rounded=1;whiteSpace=wrap;html=1;strokeColor=default;strokeWidth=1;align=center;verticalAlign=middle;fontFamily=Helvetica;fontSize=11;fontColor=default;fillColor=default;" vertex="1" parent="1">
          <mxGeometry x="-411" y="758" width="90" height="43" as="geometry" />
        </mxCell>
        <mxCell id="9340GIJxY8ZhdOZicP9r-60" value="cat context" style="rounded=1;whiteSpace=wrap;html=1;strokeColor=default;strokeWidth=1;align=center;verticalAlign=middle;fontFamily=Helvetica;fontSize=11;fontColor=default;fillColor=default;" vertex="1" parent="1">
          <mxGeometry x="-48" y="758" width="90" height="43" as="geometry" />
        </mxCell>
        <mxCell id="9340GIJxY8ZhdOZicP9r-64" value="save" style="text;html=1;align=center;verticalAlign=middle;resizable=0;points=[];autosize=1;strokeColor=none;fillColor=none;fontSize=11;fontFamily=Helvetica;fontColor=default;" vertex="1" parent="1">
          <mxGeometry x="-295" y="732" width="41" height="25" as="geometry" />
        </mxCell>
        <mxCell id="9340GIJxY8ZhdOZicP9r-65" value="load&lt;br&gt;" style="text;html=1;align=center;verticalAlign=middle;resizable=0;points=[];autosize=1;strokeColor=none;fillColor=none;fontSize=11;fontFamily=Helvetica;fontColor=default;" vertex="1" parent="1">
          <mxGeometry x="-148" y="733" width="39" height="25" as="geometry" />
        </mxCell>
        <mxCell id="9340GIJxY8ZhdOZicP9r-66" value="kernel" style="shape=umlFrame;whiteSpace=wrap;html=1;pointerEvents=0;strokeColor=#b85450;strokeWidth=2;align=center;verticalAlign=middle;fontFamily=Helvetica;fontSize=11;fillColor=#f8cecc;" vertex="1" parent="1">
          <mxGeometry x="-459" y="522" width="533" height="303" as="geometry" />
        </mxCell>
        <mxCell id="9340GIJxY8ZhdOZicP9r-67" value="user" style="shape=umlFrame;whiteSpace=wrap;html=1;pointerEvents=0;strokeColor=#6c8ebf;strokeWidth=2;align=center;verticalAlign=middle;fontFamily=Helvetica;fontSize=11;fillColor=#dae8fc;" vertex="1" parent="1">
          <mxGeometry x="-461" y="345" width="536" height="169" as="geometry" />
        </mxCell>
      </root>
    </mxGraphModel>
  </diagram>
</mxfile>
